<?xml version="1.0" encoding="UTF-8" standalone="no"?>
<svg
   stroke="currentColor"
   fill="currentColor"
   stroke-width="0"
   viewBox="0 0 16 16"
   height="1em"
   width="1em"
   version="1.1"
   id="svg6"
   sodipodi:docname="logo.svg"
   inkscape:version="1.1.2 (b8e25be833, 2022-02-05)"
   xmlns:inkscape="http://www.inkscape.org/namespaces/inkscape"
   xmlns:sodipodi="http://sodipodi.sourceforge.net/DTD/sodipodi-0.dtd"
   xmlns="http://www.w3.org/2000/svg"
   xmlns:svg="http://www.w3.org/2000/svg">
  <defs
     id="defs10" />
  <sodipodi:namedview
     id="namedview8"
     pagecolor="#ffffff"
     bordercolor="#666666"
     borderopacity="1.0"
     inkscape:pageshadow="2"
     inkscape:pageopacity="0.0"
     inkscape:pagecheckerboard="0"
     showgrid="false"
     showguides="true"
     inkscape:guide-bbox="true"
     inkscape:zoom="28.770407"
     inkscape:cx="11.000887"
     inkscape:cy="7.2991668"
     inkscape:window-width="1600"
     inkscape:window-height="837"
     inkscape:window-x="-8"
     inkscape:window-y="-8"
     inkscape:window-maximized="1"
     inkscape:current-layer="svg6" />
  <rect
     style="opacity:1;fill:#ffffff"
     id="rect53"
     width="14.146479"
     height="12.165277"
     x="0.93846434"
     y="1.9116865" />
  <path
     d="M2 1a2 2 0 0 0-2 2v10a2 2 0 0 0 2 2h12a2 2 0 0 0 2-2V3a2 2 0 0 0-2-2H2zm12 1a1 1 0 0 1 1 1v10a1 1 0 0 1-1 1H2a1 1 0 0 1-1-1V3a1 1 0 0 1 1-1h12z"
     id="path4" />
  <text
     xml:space="preserve"
     style="font-style:normal;font-weight:normal;font-size:40px;line-height:1.25;font-family:sans-serif;fill:#000000;fill-opacity:1;stroke:none"
     x="7.2258067"
     y="7.3732719"
     id="text2273"><tspan
       sodipodi:role="line"
       id="tspan2271" /></text>
  <g
     id="g23856"
     transform="translate(-0.62917742,-2)">
    <path
       d="M 3.854,5.646 C 3.3820002,5.1740002 2.6740002,5.8820002 3.146,6.354 L 4.793,8 3.146,9.646 c -0.4719998,0.472 0.2360002,1.18 0.708,0.708 l 2,-2 c 0.1958584,-0.1953639 0.1958584,-0.5126361 0,-0.708 z"
       id="path2"
       sodipodi:nodetypes="scccsccs" />
    <text
       xml:space="preserve"
       style="font-style:normal;font-weight:normal;font-size:40px;line-height:1.25;font-family:sans-serif;fill:#000000;fill-opacity:1;stroke:none"
       x="5.9477"
       y="10.552734"
       id="text8429"><tspan
         sodipodi:role="line"
         id="tspan8427"
         x="5.9477"
         y="10.552734"
         style="font-style:normal;font-variant:normal;font-weight:bold;font-stretch:normal;font-size:8px;font-family:Consolas;-inkscape-font-specification:'Consolas, Bold';font-variant-ligatures:normal;font-variant-caps:normal;font-variant-numeric:normal;font-variant-east-asian:normal">RC</tspan></text>
  </g>
</svg>
