<?xml version="1.0" standalone="no"?>
<!DOCTYPE svg PUBLIC "-//W3C//DTD SVG 20010904//EN"
 "http://www.w3.org/TR/2001/REC-SVG-20010904/DTD/svg10.dtd">
<svg version="1.0" xmlns="http://www.w3.org/2000/svg"
 width="512.000000pt" height="512.000000pt" viewBox="0 0 512.000000 512.000000"
 preserveAspectRatio="xMidYMid meet">
<metadata>
Created by potrace 1.14, written by Peter Selinger 2001-2017
</metadata>
<g transform="translate(0.000000,512.000000) scale(0.100000,-0.100000)"
fill="#000000" stroke="none">
<path d="M500 4784 c-234 -50 -436 -254 -485 -489 -22 -105 -22 -3365 0 -3470
50 -237 252 -439 491 -490 104 -22 4004 -22 4109 0 181 38 349 168 433 335 76
152 72 31 72 1890 0 1859 4 1738 -72 1890 -84 167 -252 297 -433 335 -102 21
-4015 21 -4115 -1z m4110 -332 c72 -35 114 -75 151 -144 l34 -63 0 -1685 0
-1685 -27 -51 c-40 -76 -70 -107 -140 -145 l-63 -34 -2005 0 -2005 0 -63 34
c-69 37 -109 79 -144 151 l-23 45 0 1685 0 1685 25 50 c43 86 125 154 215 176
17 4 923 6 2015 6 l1985 -2 45 -23z"/>
<path d="M3805 4035 c-217 -39 -396 -174 -490 -369 -82 -170 -116 -381 -96
-598 35 -374 192 -589 489 -670 62 -17 107 -21 232 -22 138 0 166 3 252 26 53
15 113 34 132 42 l36 15 0 140 c0 78 -3 141 -7 141 -5 0 -42 -13 -83 -29 -300
-117 -555 -57 -654 152 -48 102 -60 170 -60 342 0 239 36 359 143 466 121 121
317 141 564 59 48 -17 90 -30 93 -30 2 0 4 67 4 149 l0 149 -32 11 c-114 37
-387 51 -523 26z"/>
<path d="M1860 3206 l0 -816 155 0 155 0 0 335 0 335 58 0 c39 0 73 -8 107
-24 84 -39 77 -25 289 -501 l62 -140 177 -3 c109 -1 177 1 177 7 0 5 -69 151
-154 323 -159 324 -204 396 -271 424 -20 8 -25 14 -15 17 8 3 37 12 64 21 109
35 187 103 235 205 24 51 26 67 26 181 0 151 -19 210 -95 293 -58 64 -122 100
-227 129 -71 19 -110 22 -410 26 l-333 4 0 -816z m625 525 c63 -28 83 -46 106
-96 38 -82 17 -197 -47 -257 -57 -53 -117 -71 -251 -76 l-123 -4 0 232 0 233
133 -5 c108 -4 141 -9 182 -27z"/>
<path d="M839 3977 c-69 -47 -100 -137 -68 -200 6 -12 135 -147 287 -299 l277
-278 -277 -277 c-152 -153 -281 -288 -287 -300 -6 -12 -11 -42 -11 -66 0 -111
132 -194 228 -143 15 8 181 169 369 358 291 292 343 349 354 386 26 88 23 91
-354 470 -188 189 -354 350 -369 358 -41 22 -109 18 -149 -9z"/>
</g>
</svg>
